<svg xmlns="http://www.w3.org/2000/svg" xmlns:xlink="http://www.w3.org/1999/xlink" preserveAspectRatio="xMidYMid" width="39" height="39" viewBox="0 0 39 39">
  <defs>
    <style>
      .cls-1 {
        fill: #cdb359;
        fill-rule: evenodd;
      }
    </style>
  </defs>
  <path d="M22.144,19.499 L38.450,3.192 C39.181,2.462 39.181,1.278 38.450,0.547 C37.720,-0.183 36.536,-0.183 35.805,0.547 L19.499,16.854 L3.192,0.550 C2.462,-0.181 1.278,-0.181 0.547,0.550 C-0.183,1.280 -0.183,2.464 0.547,3.195 L16.854,19.502 L0.550,35.806 C-0.181,36.537 -0.181,37.721 0.550,38.451 C0.916,38.816 1.392,39.000 1.871,39.000 C2.350,39.000 2.828,38.818 3.192,38.451 L19.499,22.144 L35.805,38.451 C36.172,38.816 36.648,39.000 37.127,39.000 C37.605,39.000 38.084,38.818 38.448,38.451 C39.178,37.721 39.178,36.537 38.448,35.806 L22.144,19.499 Z" class="cls-1"/>
</svg>
