<?xml version="1.0" encoding="iso-8859-1"?>
<!-- Generator: Adobe Illustrator 19.0.0, SVG Export Plug-In . SVG Version: 6.00 Build 0)  -->
<svg version="1.1" id="Layer_1" xmlns="http://www.w3.org/2000/svg" xmlns:xlink="http://www.w3.org/1999/xlink" x="0px" y="0px"
	 viewBox="0 0 512 512" style="enable-background:new 0 0 512 512;" xml:space="preserve">

		<path d="M442.624,424.793H271.673v-30.964h170.952c8.656,0,15.673-7.018,15.673-15.673c0-105.039-82.373-191.419-186.625-199.352
			v-15.636c0-8.656-7.018-15.673-15.673-15.673c-8.656,0-15.673,7.018-15.673,15.673v15.636
			c-104.252,7.933-186.625,94.313-186.625,199.352c0,8.656,7.018,15.673,15.673,15.673h170.952v30.964H69.374
			c-8.656,0-15.673,7.018-15.673,15.673v55.86c0,8.656,7.018,15.673,15.673,15.673h373.251c8.656,0,15.673-7.018,15.673-15.673
			v-55.86C458.298,431.81,451.281,424.793,442.624,424.793z M85.78,362.482c8.039-85.649,81.312-152.927,170.219-152.927
			s162.18,67.279,170.219,152.927H256.504c-0.169-0.005-0.334-0.025-0.505-0.025c-0.17,0-0.335,0.02-0.505,0.025H85.78z
			 M426.952,480.653h-0.001H85.048V456.14h341.904V480.653z"/>

		<path d="M255.999,0c-8.656,0-15.673,7.018-15.673,15.673v47.216c0,8.656,7.018,15.673,15.673,15.673
			c8.656,0,15.673-7.018,15.673-15.673V15.673C271.673,7.018,264.655,0,255.999,0z"/>

		<path d="M173.205,90.102l-33.812-33.387c-6.16-6.082-16.083-6.02-22.164,0.141c-6.082,6.16-6.02,16.083,0.14,22.165l33.812,33.387
			c6.158,6.08,16.082,6.021,22.164-0.141C179.427,106.107,179.365,96.184,173.205,90.102z"/>

		<path d="M394.77,56.856c-6.082-6.16-16.005-6.222-22.165-0.141l-33.811,33.387c-6.16,6.082-6.222,16.006-0.14,22.165
			c6.082,6.16,16.005,6.222,22.165,0.141l33.811-33.387C400.79,72.939,400.853,63.016,394.77,56.856z"/>
</svg>
