<svg xmlns="http://www.w3.org/2000/svg" xmlns:xlink="http://www.w3.org/1999/xlink" preserveAspectRatio="xMidYMid" width="65" height="39" viewBox="0 0 65 39">
  <defs>
    <style>
      .cls-1 {
        fill: #cdb359;
        fill-rule: evenodd;
      }
    </style>
  </defs>
  <path d="M64.541,20.898 C64.408,21.082 61.118,25.492 55.532,29.916 C52.229,32.528 48.793,34.616 45.330,36.125 C40.925,38.029 36.467,39.000 32.062,39.000 C20.944,39.000 10.330,32.949 0.525,20.990 C-0.152,20.150 -0.178,18.968 0.459,18.102 C0.591,17.918 3.882,13.508 9.468,9.084 C12.771,6.471 16.207,4.384 19.670,2.875 C24.075,0.971 28.533,-0.000 32.938,-0.000 C44.056,-0.000 54.657,6.065 64.475,18.010 C65.151,18.850 65.178,20.032 64.541,20.898 ZM32.924,4.739 C24.433,4.739 17.163,9.071 12.546,12.707 C9.255,15.306 6.801,17.918 5.461,19.480 C13.952,29.299 22.894,34.274 32.062,34.274 C40.553,34.274 47.824,29.942 52.441,26.306 C55.731,23.720 58.186,21.095 59.526,19.533 C51.035,9.714 42.092,4.739 32.924,4.739 ZM32.487,30.586 C26.304,30.586 21.289,25.611 21.289,19.507 C21.289,13.403 26.304,8.427 32.487,8.427 C33.800,8.427 34.875,9.491 34.875,10.790 C34.875,12.090 33.800,13.153 32.487,13.153 C28.944,13.153 26.065,16.002 26.065,19.507 C26.065,23.011 28.944,25.860 32.487,25.860 C36.029,25.860 38.908,23.011 38.908,19.507 C38.908,18.207 39.983,17.144 41.296,17.144 C42.610,17.144 43.685,18.207 43.685,19.507 C43.685,25.611 38.669,30.586 32.487,30.586 Z" class="cls-1"/>
</svg>
