<svg xmlns="http://www.w3.org/2000/svg" xmlns:xlink="http://www.w3.org/1999/xlink" preserveAspectRatio="xMidYMid" width="116" height="80" viewBox="0 0 116 80">
  <defs>
    <style>
      .cls-1 {
        fill: #cdb359;
        fill-rule: evenodd;
      }
    </style>
  </defs>
  <path d="M76.657,-0.001 C69.908,-0.001 63.556,1.725 58.000,4.771 C52.444,1.725 46.092,-0.001 39.343,-0.001 C17.609,-0.001 0.000,17.902 0.000,39.997 C0.000,62.086 17.609,79.995 39.343,79.995 C46.092,79.995 52.444,78.270 58.000,75.223 C63.556,78.270 69.908,79.995 76.657,79.995 C98.384,79.995 116.000,62.086 116.000,39.997 C116.000,17.902 98.384,-0.001 76.657,-0.001 ZM76.657,72.035 C72.699,72.035 68.913,71.293 65.426,69.939 C72.759,63.333 77.645,53.984 78.533,43.482 L78.454,43.482 L70.670,43.482 L38.497,43.482 L38.497,51.452 L68.774,51.452 C66.597,57.232 62.825,62.211 58.000,65.820 C55.739,67.512 53.240,68.907 50.574,69.939 C47.087,71.293 43.301,72.035 39.343,72.035 C21.932,72.035 7.823,57.691 7.823,39.997 C7.823,22.297 21.932,7.953 39.343,7.953 C43.301,7.953 47.093,8.694 50.581,10.049 C43.352,16.557 38.500,25.724 37.509,36.043 L37.502,36.061 L77.459,36.061 L77.459,28.091 L47.392,28.091 C49.592,22.500 53.299,17.687 58.000,14.168 C60.261,12.476 62.754,11.087 65.419,10.049 C68.906,8.694 72.699,7.953 76.657,7.953 C94.061,7.953 108.170,22.297 108.170,39.997 C108.170,57.691 94.061,72.035 76.657,72.035 Z" class="cls-1"/>
</svg>
