<svg xmlns="http://www.w3.org/2000/svg" xmlns:xlink="http://www.w3.org/1999/xlink" preserveAspectRatio="xMidYMid" width="52" height="39" viewBox="0 0 52 39">
  <defs>
    <style>
      .cls-1 {
        fill: #cdb359;
        fill-rule: evenodd;
      }
    </style>
  </defs>
  <path d="M49.771,21.794 L2.228,21.794 C1.003,21.794 -0.000,20.762 -0.000,19.500 C-0.000,18.238 1.003,17.206 2.228,17.206 L49.771,17.206 C50.997,17.206 52.000,18.238 52.000,19.500 C52.000,20.762 50.997,21.794 49.771,21.794 ZM49.771,4.588 L2.228,4.588 C1.003,4.588 -0.000,3.556 -0.000,2.294 C-0.000,1.032 1.003,-0.000 2.228,-0.000 L49.771,-0.000 C50.997,-0.000 52.000,1.032 52.000,2.294 C52.000,3.556 50.997,4.588 49.771,4.588 ZM2.228,34.412 L49.771,34.412 C50.997,34.412 52.000,35.444 52.000,36.706 C52.000,37.968 50.997,39.000 49.771,39.000 L2.228,39.000 C1.003,39.000 -0.000,37.968 -0.000,36.706 C-0.000,35.444 1.003,34.412 2.228,34.412 Z" class="cls-1"/>
</svg>
